<svg width="185" height="172" viewBox="0 0 185 172" fill="none" xmlns="http://www.w3.org/2000/svg">
<path d="M105.319 101.159L106.592 102.454C104.997 103.68 103.615 104.293 102.444 104.293C101.943 104.293 101.518 104.169 101.171 103.919C100.682 103.567 100.444 103.022 100.457 102.284L100.534 99.3197C100.277 99.4449 100 99.5302 99.7049 99.5755C99.1259 99.6663 98.5342 99.5922 97.9298 99.3538C97.2737 99.0928 96.7398 98.6157 96.3286 97.9231C96.2254 98.0483 96.1226 98.1676 96.0197 98.2809C95.4668 98.8599 94.7915 99.3197 93.9943 99.6603L93.1649 98.1105C93.6923 97.8836 94.142 97.5769 94.5152 97.1908C95.1197 96.5435 95.4283 95.7714 95.4413 94.8745L95.4603 94.7381C95.6788 94.7496 96.0035 94.7666 96.4346 94.7891C96.8656 94.8119 97.1836 94.8347 97.3896 94.8572C97.4151 95.1752 97.4698 95.5215 97.5537 95.8963C97.637 96.2711 97.7852 96.6541 97.9972 97.0459C98.2095 97.4378 98.4506 97.6847 98.721 97.787C98.9522 97.8779 99.1645 97.9119 99.3575 97.8891C99.576 97.8438 99.7848 97.7187 99.9843 97.5143C100.184 97.3102 100.348 97.049 100.476 96.7307H102.541L102.406 102.318C102.406 102.42 102.418 102.505 102.444 102.573C102.688 102.573 103.068 102.462 103.583 102.241C104.097 102.02 104.676 101.659 105.319 101.159Z" fill="#FF1700"/>
<path d="M117.048 101.159L118.322 102.471C116.727 103.686 115.344 104.293 114.174 104.293C113.672 104.293 113.254 104.168 112.92 103.919C112.765 103.816 112.643 103.697 112.553 103.561C111.859 104.049 111.112 104.293 110.315 104.293C110.225 104.293 110.128 104.288 110.026 104.276C109.601 104.242 109.193 104.126 108.801 103.927C108.408 103.728 108.129 103.553 107.962 103.399C107.794 103.245 107.646 103.09 107.518 102.93C107.171 102.511 106.955 102.031 106.871 101.491C106.788 100.952 106.811 100.447 106.939 99.9757C107.068 99.5045 107.267 99.0754 107.537 98.6893C108.154 97.8152 109.109 97.2247 110.402 96.9179C111.694 96.6114 113.029 96.6685 114.405 97.0883L113.768 98.7066C112.842 98.4339 111.942 98.3801 111.068 98.5447C110.193 98.7094 109.569 99.0587 109.196 99.5921C109.054 99.7852 108.946 100.007 108.868 100.256C108.791 100.506 108.765 100.79 108.791 101.108C108.817 101.426 108.919 101.704 109.1 101.942C109.408 102.329 109.775 102.539 110.2 102.573C110.572 102.596 110.958 102.474 111.357 102.207C111.756 101.94 112.058 101.557 112.263 101.057L112.322 99.3196L114.27 99.3706L114.154 102.334C114.154 102.425 114.16 102.505 114.174 102.573H114.193C114.321 102.573 114.505 102.536 114.743 102.462C114.981 102.388 115.312 102.241 115.736 102.02C116.161 101.798 116.598 101.511 117.048 101.159Z" fill="#FF1700"/>
<path d="M125.17 94.3634L125.401 94.5848C124.63 95.2434 123.71 95.6407 122.642 95.777C122.398 95.8111 122.16 95.8281 121.929 95.8281C121.054 95.8281 120.231 95.6352 119.459 95.2491L120.019 94.3634L120.405 93.7502C121.022 94.0569 121.678 94.1648 122.372 94.0737C123.015 93.9944 123.575 93.7502 124.051 93.3413L125.17 94.3634ZM128.874 101.159L130.147 102.454C128.552 103.68 127.17 104.293 126 104.293C125.498 104.293 125.073 104.168 124.726 103.918C124.25 103.567 124.019 103.022 124.032 102.283V101.824C124.019 101.846 124.006 101.863 123.993 101.875C123.864 102.023 123.697 102.193 123.492 102.386C123.286 102.579 122.99 102.837 122.604 103.161C122.218 103.484 121.8 103.754 121.35 103.97C120.9 104.185 120.488 104.293 120.115 104.293C119.832 104.293 119.582 104.231 119.363 104.106C118.772 103.811 118.489 103.237 118.514 102.386L118.688 96.7308H120.636L120.463 102.437C121.131 102.096 121.8 101.551 122.469 100.802C123.446 99.7114 124.019 98.3716 124.186 96.7818V96.7308H126.135V96.7991V96.9012L125.98 102.317C125.967 102.42 125.973 102.505 126 102.573C126.243 102.573 126.623 102.462 127.138 102.241C127.652 102.019 128.231 101.659 128.874 101.159Z" fill="#FF1700"/>
<path d="M142.803 101.142L144.192 102.351C143.484 102.976 142.696 103.456 141.828 103.79C140.96 104.126 140.102 104.293 139.253 104.293C138.16 104.293 137.234 104.02 136.475 103.475C136.192 103.283 135.941 103.056 135.723 102.794C135.169 103.43 134.533 103.873 133.813 104.123C133.478 104.236 133.157 104.293 132.848 104.293C132.527 104.293 132.224 104.236 131.941 104.123C131.375 103.884 130.954 103.464 130.678 102.862C130.401 102.261 130.314 101.568 130.417 100.784L132.346 100.989C132.308 101.273 132.311 101.537 132.356 101.781C132.401 102.025 132.459 102.207 132.53 102.326C132.6 102.445 132.674 102.522 132.752 102.556C132.829 102.59 132.951 102.579 133.118 102.522C133.298 102.454 133.487 102.346 133.687 102.198C133.887 102.051 134.066 101.88 134.227 101.687C134.388 101.494 134.513 101.301 134.603 101.108C134.732 100.836 134.806 100.526 134.825 100.18C134.845 99.8334 134.79 99.5044 134.662 99.1922C134.533 98.8797 134.333 98.667 134.063 98.5532C133.845 98.4851 133.61 98.4654 133.359 98.4936C133.109 98.5222 132.848 98.6042 132.578 98.7406C132.308 98.8769 132.07 99.0531 131.864 99.2687L130.398 98.1444C130.989 97.5314 131.7 97.1168 132.53 96.9012C133.359 96.6855 134.128 96.7138 134.835 96.9865C135.337 97.1797 135.742 97.4691 136.05 97.8552C136.488 97.4576 136.957 97.1624 137.459 96.9692C138.192 96.6855 138.873 96.6743 139.504 96.9352C140.069 97.1624 140.488 97.577 140.758 98.1784C141.028 98.7806 141.111 99.4731 141.009 100.256L139.079 100.052C139.131 99.6433 139.108 99.2943 139.012 99.0045C138.915 98.7151 138.803 98.5477 138.674 98.5021C138.584 98.4569 138.436 98.4739 138.231 98.5532C137.947 98.6555 137.677 98.8344 137.42 99.0898C137.163 99.3453 136.983 99.6092 136.88 99.8817C136.725 100.279 136.735 100.694 136.909 101.125C137.083 101.557 137.343 101.898 137.69 102.147C138.05 102.397 138.51 102.539 139.07 102.573C139.629 102.607 140.249 102.502 140.932 102.258C141.613 102.014 142.236 101.642 142.803 101.142Z" fill="#FF1700"/>
<path d="M150.327 101.96C150.777 101.563 151.002 101.08 151.002 100.512C151.002 99.9443 150.773 99.4591 150.317 99.0558C149.86 98.6527 149.31 98.4511 148.667 98.4511C148.024 98.4511 147.474 98.6527 147.018 99.0558C146.561 99.4591 146.333 99.9443 146.333 100.512C146.333 101.08 146.561 101.566 147.018 101.968C147.474 102.372 148.024 102.573 148.667 102.573H148.687H148.706C149.336 102.562 149.876 102.357 150.327 101.96ZM155.304 101.159L156.577 102.471C155.304 103.436 153.998 103.998 152.661 104.157C152.314 104.203 151.638 104.237 150.635 104.259C150.069 104.282 149.51 104.293 148.957 104.293H148.783H148.687H148.667C147.896 104.293 147.179 104.126 146.516 103.791C145.854 103.456 145.333 102.996 144.954 102.411C144.574 101.827 144.385 101.193 144.385 100.512C144.385 99.4674 144.803 98.5762 145.639 97.8381C146.474 97.1 147.484 96.7307 148.667 96.7307C149.851 96.7307 150.86 97.1 151.696 97.8381C152.532 98.5762 152.95 99.4674 152.95 100.512C152.95 101.216 152.744 101.869 152.333 102.471C152.358 102.46 152.384 102.454 152.41 102.454C153.362 102.34 154.326 101.909 155.304 101.159Z" fill="#FF1700"/>
<path d="M166.532 101.159L167.805 102.454C166.197 103.68 164.808 104.293 163.638 104.293C163.136 104.293 162.718 104.169 162.384 103.919C161.895 103.567 161.657 103.022 161.67 102.284L161.69 101.824C161.329 101.949 160.956 102.039 160.57 102.096C160.326 102.13 160.082 102.147 159.838 102.147C159.49 102.147 159.143 102.113 158.796 102.045L158.757 104.293H156.809L156.963 96.7307H158.911L158.834 100.274C159.31 100.41 159.792 100.45 160.281 100.393C160.822 100.325 161.31 100.137 161.747 99.8307L161.844 96.7307H163.793L163.619 102.318C163.619 102.431 163.625 102.516 163.638 102.573C163.87 102.584 164.246 102.477 164.767 102.25C165.287 102.022 165.876 101.659 166.532 101.159Z" fill="#FF1700"/>
<path d="M178.261 101.159L179.534 102.471C177.94 103.686 176.557 104.293 175.386 104.293C174.885 104.293 174.467 104.168 174.133 103.919C173.978 103.816 173.856 103.697 173.766 103.561C173.071 104.049 172.325 104.293 171.528 104.293C171.438 104.293 171.341 104.288 171.239 104.276C170.814 104.242 170.406 104.126 170.014 103.927C169.621 103.728 169.342 103.553 169.175 103.399C169.007 103.245 168.859 103.09 168.731 102.93C168.384 102.511 168.168 102.031 168.084 101.491C168.001 100.952 168.024 100.447 168.152 99.9757C168.281 99.5045 168.48 99.0754 168.75 98.6893C169.368 97.8152 170.322 97.2247 171.615 96.9179C172.907 96.6114 174.242 96.6685 175.618 97.0883L174.982 98.7066C174.055 98.4339 173.155 98.3801 172.281 98.5447C171.406 98.7094 170.782 99.0587 170.409 99.5921C170.267 99.7852 170.159 100.007 170.081 100.256C170.004 100.506 169.978 100.79 170.004 101.108C170.03 101.426 170.133 101.704 170.313 101.942C170.621 102.329 170.988 102.539 171.413 102.573C171.785 102.596 172.171 102.474 172.57 102.207C172.969 101.94 173.271 101.557 173.476 101.057L173.535 99.3196L175.483 99.3706L175.367 102.334C175.367 102.425 175.374 102.505 175.386 102.573H175.406C175.534 102.573 175.717 102.536 175.956 102.462C176.194 102.388 176.525 102.241 176.949 102.02C177.374 101.798 177.811 101.511 178.261 101.159Z" fill="#FF1700"/>
<path d="M142.332 59.591L144.489 58.8246L142.191 58.514C141.768 58.4569 141.319 58.4281 140.86 58.4281C135.581 58.4281 129.64 62.1688 129.39 62.3279L128.865 62.6613L131.106 65.3212L131.62 64.9653C136.214 61.7833 142.272 59.6126 142.332 59.591ZM125.615 71.4295C125.332 71.1065 125.407 69.306 125.487 67.4018C125.521 66.5611 125.561 65.6087 125.589 64.5252C125.64 62.5005 124.914 60.7502 123.489 59.4628C121.995 58.114 119.759 57.3405 117.355 57.3405C116.835 57.3405 116.308 57.3764 115.789 57.4472C109.815 58.2627 108.923 61.7155 108.923 63.7009V76.2649L109.58 76.246C109.617 76.2452 113.286 76.0932 113.881 71.9612C114.344 68.7449 114.279 65.8008 114.236 63.8524C114.229 63.5325 114.222 63.24 114.219 62.9779C114.209 62.2412 114.449 61.6326 114.913 61.2186C115.334 60.8424 115.934 60.635 116.601 60.635C117.469 60.635 118.362 60.9851 119.05 61.5959C119.746 62.2132 120.572 63.3827 120.56 65.4507C120.557 65.9973 120.546 66.5339 120.535 67.0553C120.453 70.8459 120.376 74.426 124.336 74.6222C124.433 74.6271 124.53 74.6296 124.623 74.6296C127.761 74.6296 128.798 71.9969 128.908 70.605L129.022 69.1538L127.832 70.1602C127.114 70.7668 126.063 71.4166 125.615 71.4295ZM179.288 77.6684C179.259 77.6335 176.417 74.1094 178.796 69.3151C178.869 69.1699 178.949 68.8717 178.679 68.5073C178.183 67.8375 176.544 67.0739 175.603 67.0739C175.463 67.0739 175.333 67.0893 175.215 67.1197C175.075 67.1557 175.04 67.184 174.808 67.3659C169.21 71.7697 164.729 74.6219 163.374 74.6461C162.99 74.0797 162.974 71.3365 162.966 69.9947L162.965 61.074C167.981 60.5461 171.925 59.544 174.692 58.0934L177.218 56.7692L174.298 57.0513C174.253 57.0557 169.702 57.4884 163.461 57.4884C163.305 57.4936 163.132 57.4881 162.965 57.4873V45.8493C164.721 46.9109 166.277 47.6092 166.355 47.6438L169.457 49.0272L167.112 46.763C163.854 43.6172 163.125 37.8758 163.118 37.8182L162.997 36.823L157.949 40.239V57.3726C156.892 57.327 155.848 57.268 154.84 57.1967L154.152 57.1481L154.152 61.4367L154.77 61.4527C154.77 61.4529 155.965 61.4872 157.949 61.4189V69.6847C157.869 70.4979 157.424 76.5462 161.676 77.6563C161.996 77.74 162.396 77.7825 162.861 77.7825C165.834 77.7825 171.18 76.1308 174.4 73.6723C174.42 73.6575 174.439 73.6424 174.459 73.627C174.703 75.5614 175.576 77.4758 178.537 78.5217L180.595 79.2486L179.288 77.6684ZM97.3119 71.9574L96.3724 72.8472C94.2169 74.4916 91.895 75.4728 90.1562 75.4728C89.6033 75.4728 88.8621 75.3677 88.4724 74.8667C88.0628 74.341 88.1007 73.4467 88.5778 72.3492C89.86 69.4015 94.6119 66.9365 97.3626 65.7177C97.3278 67.893 97.3104 69.9862 97.3119 71.9574ZM125.304 77.2656L124.442 77.6881C120.578 79.5844 116.822 80.6334 112.962 80.8951C111.632 80.9851 110.426 81.031 109.377 81.031C105.36 81.031 104.053 80.387 103.34 79.7414L103.122 79.3986L103.069 79.3493C102.171 78.5036 102.169 75.3403 102.244 72.1728C102.347 67.8422 102.577 57.9803 102.577 57.9063L102.587 56.7478L97.724 60.0791L97.4832 60.2473L97.4742 60.66C97.467 60.9094 97.4515 61.4568 97.4322 62.2313C93.2019 63.7561 87.4649 66.3537 84.5895 71.3856C83.4331 73.4097 83.2799 75.5013 84.1697 77.1246C84.913 78.4811 86.3336 79.411 88.1688 79.743C88.8938 79.8744 89.6298 79.9411 90.3564 79.9411C93.5207 79.9411 96.1269 78.7045 97.9453 77.4637C98.501 79.633 99.3914 81.3352 100.545 82.4212L100.598 82.4715C101.98 83.7729 103.961 85.0317 109.063 85.4241C109.768 85.4784 110.474 85.5059 111.161 85.5059C113.703 85.5059 115.774 85.1371 117.634 84.7387C125.752 82.9988 125.405 78.3305 125.386 78.1326L125.304 77.2656ZM144.854 71.9571L143.915 72.8472C141.759 74.4919 139.437 75.4728 137.698 75.4728C137.146 75.4728 136.405 75.3677 136.014 74.8667C135.605 74.341 135.643 73.4467 136.12 72.3492C137.403 69.4015 142.154 66.9365 144.904 65.7177C144.869 67.8968 144.853 69.9909 144.854 71.9571ZM172.846 77.2656L171.984 77.6881C168.12 79.5844 164.365 80.6334 160.504 80.8951C159.174 80.9851 157.968 81.031 156.92 81.031C152.902 81.031 151.595 80.387 150.883 79.7414L150.664 79.3984L150.612 79.3493C149.713 78.5036 149.711 75.3403 149.786 72.1728C149.889 67.8425 150.119 57.9806 150.119 57.9063L150.129 56.7478L145.266 60.0791L145.026 60.2459L145.018 60.6128C145.011 60.835 144.995 61.4033 144.975 62.2313C140.744 63.7561 135.007 66.3534 132.132 71.3856C130.975 73.4097 130.822 75.5013 131.712 77.1246C132.455 78.4811 133.876 79.411 135.711 79.743C136.436 79.8744 137.172 79.9411 137.899 79.9411C141.063 79.9411 143.669 78.7045 145.488 77.4637C146.043 79.633 146.934 81.3352 148.087 82.4201L148.14 82.4715C149.522 83.7729 151.503 85.0317 156.605 85.4241C157.31 85.4784 158.017 85.5059 158.703 85.5059C161.245 85.5059 163.317 85.1371 165.176 84.7387C173.295 82.9988 172.947 78.3305 172.928 78.1326L172.846 77.2656ZM67.6971 81.3468C67.5137 81.4779 67.3667 81.5833 67.2729 81.6447C66.0335 82.458 64.3562 83.9803 62.5804 85.5923C61.0588 86.9733 59.4984 88.3896 58.2503 89.3165C58.4327 87.3321 58.4013 84.7255 58.3749 82.548C58.3538 80.7793 58.3317 78.9503 58.461 78.5664C58.93 77.1803 59.9577 76.4973 60.4578 76.2372C60.8705 76.4789 61.2698 76.7185 61.6617 76.9534C63.9099 78.3014 66.0506 79.5852 69.195 80.3236C68.6347 80.6764 68.0946 81.0628 67.6971 81.3468ZM62.5804 53.5342C62.5593 53.551 62.4697 53.6056 62.2121 53.6056C60.335 53.6056 56.0179 51.047 55.2603 50.2444C55.6376 49.7313 57.2288 48.3114 59.4993 46.5806C61.6412 48.9315 63.5587 52.7654 62.5804 53.5342ZM62.375 72.386L60.96 71.489L60.5985 71.6879C60.0416 71.9936 55.1282 74.7289 54.106 76.5544C53.0273 78.4819 53.1498 79.9117 53.4456 83.3654C53.55 84.5859 53.6803 86.1046 53.7878 88.0038C53.8341 88.8188 53.7085 90.1363 53.6169 91.0344C53.2433 91.0983 52.8834 91.1304 52.5419 91.1304C49.7013 91.1307 48.5797 88.9063 48.2295 87.9495C47.2415 85.254 47.4864 80.0308 47.5178 79.4442L47.5563 78.2235L47.4594 78.2899V50.8502C47.4594 50.8146 47.4836 47.2583 49.5811 45.1977C50.5345 44.2609 51.7301 43.786 53.1339 43.786C54.4982 43.786 55.838 44.2228 56.8891 44.6961C54.5346 46.5229 52.9074 47.9604 51.8019 49.1883L51.7674 49.2259C50.3987 50.7218 50.9858 51.9881 51.7195 52.7871C53.0233 54.2065 54.8438 55.5773 56.1466 56.12C58.7711 57.2137 60.5709 57.2137 61.3394 57.2137L61.4585 57.2134C62.1251 57.2134 62.4893 57.0527 62.7075 56.9563C64.0025 56.3848 66.5469 54.5264 67.0071 52.8587C67.6225 50.6305 66.3731 46.7611 62.8921 43.7602C64.8516 42.281 68.1533 41.0323 68.1533 41.0323C68.1533 41.0323 64.0072 40.4174 60.6492 42.2761C58.4165 41.1442 56.1889 40.5708 54.0218 40.5708C51.465 40.5708 49.0527 41.3539 46.8518 42.8978C43.6166 45.1683 42.7504 47.9827 42.5239 49.4929H42.4431L42.4434 81.9864C42.4421 82.0237 42.4412 82.1345 42.4431 82.2983V83.8104H42.5055C42.6131 85.4027 42.9074 87.828 43.7114 89.404C44.7652 91.4709 46.9453 93.2665 49.2653 93.9788C50.2486 94.2812 51.4778 94.3764 52.9397 94.2622C52.3759 95.7165 51.0473 96.9284 48.9782 97.8731L46.6538 98.9344H49.2706C49.3474 98.9344 56.8204 98.8677 57.8059 93.2591C58.7665 92.8648 59.77 92.4197 60.7173 91.8614C66.0397 88.7238 68.6804 86.489 70.0994 85.2885C70.3406 85.0844 70.5469 84.9096 70.7266 84.7645L71.0426 84.5074C72.3575 83.4329 74.1588 81.9606 76.4017 81.8821C76.8408 81.8667 78.1558 81.8173 78.1558 81.8173L78.7636 81.7946L78.7751 77.4706H76.9543C70.4176 77.4706 62.7072 72.5978 62.375 72.386ZM92.5129 59.0326L90.8182 58.3085C90.7364 58.2737 88.7866 57.4533 86.2914 57.4533C83.8744 57.4533 80.7262 58.2295 78.5178 61.6228C78.2885 60.4418 77.8186 59.0411 76.8558 58.1891C76.2476 57.6505 75.5144 57.3775 74.6766 57.3775H74.0634L74.0407 57.9186C74.0233 58.3266 73.6202 67.9311 73.7281 69.6869C73.7424 69.919 73.7402 70.203 73.7377 70.5037C73.7222 72.4354 73.6957 75.6679 78.0243 76.2402L78.7285 76.3335L78.7549 75.7052C78.7565 75.6662 78.9175 71.773 78.9215 68.6486C78.9256 65.769 85.9517 60.216 90.6684 59.3652L92.5129 59.0326Z" fill="#FF1700"/>
<path d="M80.0449 51.3363C79.6635 51.5059 78.9273 51.8039 78.8953 52.4701C78.8533 53.3445 79.0382 54.3318 80.5629 55.5747C81.0024 55.9328 81.4521 55.8606 82.2399 55.5618C83.4296 55.1113 86.1128 53.1857 85.6712 52.1644C85.5646 51.918 85.1273 51.0035 84.7379 50.908C82.9519 50.4709 80.7311 51.0309 80.0449 51.3363Z" fill="#FF1700"/>
<path d="M71.2596 6.83689C71.2326 6.46072 71.2114 5.74596 70.5299 5.45841C69.6355 5.08059 68.5347 4.84297 66.6414 5.59313C66.0957 5.80906 65.9944 6.20252 65.9959 6.95981C65.9981 8.10233 66.95 11.0374 68.1872 11.0799C68.4859 11.09 69.61 11.0942 69.8623 10.8154C71.0194 9.53706 71.3081 7.51378 71.2596 6.83689Z" fill="#FF1700"/>
<path d="M85.0132 17.3602C84.5949 17.285 83.808 17.1166 83.3154 17.622C82.669 18.2857 82.1217 19.1618 82.4471 20.9714C82.541 21.493 82.9447 21.682 83.7729 21.8785C85.0228 22.1748 88.4803 22.1301 88.8501 21.0869C88.9393 20.835 89.237 19.8777 88.9983 19.5901C87.9028 18.2701 85.7662 17.4958 85.0132 17.3602Z" fill="#FF1700"/>
<path d="M170.975 66.1719C171.155 65.8303 171.523 65.1938 171.081 64.6532C170.5 63.9439 169.662 63.2706 167.592 63.1296C166.996 63.0892 166.694 63.3919 166.285 64.0575C165.669 65.0618 164.915 68.0413 165.978 68.6013C166.235 68.7363 167.22 69.2146 167.593 69.0763C169.301 68.4419 170.651 66.7871 170.975 66.1719Z" fill="#FF1700"/>
<path d="M24.0091 50.4065C23.2334 50.93 22.715 51.5303 22.3517 51.4645C21.8557 51.3745 21.4781 50.7769 21.0499 50.3969C21.4629 50.0577 21.852 49.4823 22.2958 49.4472C22.7278 49.4135 23.2157 49.9329 24.0091 50.4065Z" fill="#FF1700"/>
<path d="M15.5873 68.1278C14.1188 68.1448 12.7502 66.9172 12.7672 65.5987C12.7837 64.3297 14.0523 63.2091 15.513 63.1731C17.0461 63.1358 18.4297 64.2849 18.4253 65.5924C18.421 66.9185 17.0865 68.1108 15.5873 68.1278Z" fill="#FF1700"/>
<path d="M23.0528 74.3724C22.2131 74.8943 21.7273 75.431 21.309 75.3929C20.8568 75.3514 20.4677 74.7728 20.0513 74.4287C20.4429 74.0621 20.7971 73.4519 21.2369 73.3992C21.6624 73.3484 22.1761 73.872 23.0528 74.3724Z" fill="#FF1700"/>
<path d="M10.0798 62.8656C10.6044 63.6607 11.1644 64.1315 11.0836 64.4898C10.9966 64.8764 10.2989 65.4224 9.88837 65.4087C9.49958 65.3958 8.86341 64.759 8.8429 64.3757C8.82239 64.0009 9.4424 63.5989 10.0798 62.8656Z" fill="#FF1700"/>
<path d="M21.7258 38.329C24.4215 40.4366 27.0871 40.0815 29.7959 39.2954C30.9032 38.9741 32.0055 38.638 33.1162 38.3266C35.4005 37.6856 39.7946 37.3536 44.5884 39.2754C44.5884 39.2754 41.4172 39.7363 36.0742 42.1759C33.8369 42.9282 31.4073 43.4751 29.0295 43.6054C25.4477 43.8019 22.7365 41.7706 21.7258 38.329Z" fill="#FF1700"/>
<path d="M27.0978 89.4491C34.0577 85.7557 32.5902 80.0983 31.6467 74.9422C33.2509 76.6335 35.3605 78.3637 36.6415 80.5195C37.4309 81.8478 37.8331 83.477 37.48 85.1005C37.062 87.0231 34.7085 88.601 32.5569 89.0562C30.8309 89.4217 29.0507 89.5882 27.2942 89.8431C27.2286 89.7117 27.1634 89.5806 27.0978 89.4491Z" fill="#FF1700"/>
<path d="M79.6429 47.4463C76.7905 49.2578 72.6696 49.4288 70.0124 47.9279C69.1124 47.4197 68.2372 46.7135 68.8168 45.7943C69.1329 45.293 70.2405 45.0233 71.0265 44.9519C71.8911 44.8737 72.8045 45.1081 73.6821 45.2672C77.4317 45.9479 78.7547 45.6472 82.0695 43.6475C82.9278 44.9681 80.5096 46.8959 79.6429 47.4463Z" fill="#FF1700"/>
<path d="M23.2966 90.5475C24.5239 90.6307 25.2614 91.2008 25.2651 92.234C25.2691 93.188 24.5829 93.8566 23.489 93.8868C22.3528 93.918 21.5211 93.3669 21.4956 92.2933C21.4711 91.2598 22.1498 90.6592 23.2966 90.5475Z" fill="#FF1700"/>
<path d="M60.872 96.5748C62.0993 96.6579 62.8368 97.2281 62.8405 98.2611C62.8445 99.2154 62.1583 99.8838 61.0644 99.914C59.9282 99.9456 59.0965 99.394 59.071 98.3207C59.0462 97.2868 59.7252 96.6862 60.872 96.5748Z" fill="#FF1700"/>
<path d="M18.3056 60.0785C17.1535 59.9937 16.4801 59.4107 16.4717 58.3714C16.4633 57.3809 17.1309 56.7948 18.2459 56.7537C19.449 56.7092 20.183 57.3164 20.2178 58.3491C20.2529 59.3882 19.5207 59.96 18.3056 60.0785Z" fill="#FF1700"/>
<path d="M58.1561 33.4617C57.6492 32.7313 57.0854 32.2797 57.1442 31.9041C57.2045 31.5161 57.8702 31.2019 58.2711 30.8554C58.6782 31.2406 59.3442 31.5946 59.4101 32.0209C59.4623 32.3587 58.7792 32.7854 58.1561 33.4617Z" fill="#FF1700"/>
<path d="M27.801 63.8133C28.3657 64.5698 28.9584 65.0149 28.9093 65.396C28.8605 65.7787 28.173 66.0979 27.7653 66.4452C27.3718 66.0773 26.713 65.7354 26.6626 65.3342C26.6163 64.9663 27.227 64.5344 27.801 63.8133Z" fill="#FF1700"/>
<path d="M39.7948 35.2855C38.9476 35.8224 38.4665 36.3627 38.0628 36.3207C37.6075 36.2735 36.9253 35.722 36.8936 35.353C36.8644 35.0135 37.5286 34.383 37.9609 34.3273C38.3817 34.2733 38.896 34.7853 39.7948 35.2855Z" fill="#FF1700"/>
<path d="M25.703 44.4636C24.8527 45.0046 24.3701 45.5496 23.9502 45.5142C23.5036 45.4766 23.1161 44.8897 22.7028 44.5429C23.0996 44.182 23.4539 43.5938 23.9064 43.5274C24.3141 43.4678 24.8294 43.9793 25.703 44.4636Z" fill="#FF1700"/>
<path d="M19.9569 44.2207C20.4877 44.9758 21.0508 45.4212 20.994 45.7927C20.9343 46.1853 20.2838 46.5074 19.8916 46.8606C19.4932 46.4989 18.8198 46.1609 18.7766 45.7688C18.7352 45.3959 19.3527 44.9662 19.9569 44.2207Z" fill="#FF1700"/>
<path d="M34.7821 91.8436C33.9421 92.388 33.4765 92.9241 33.0439 92.9041C32.616 92.8846 32.2209 92.3043 31.8113 91.9698C32.1908 91.6112 32.5289 91.0199 32.9609 90.9606C33.3836 90.903 33.9017 91.3876 34.7821 91.8436Z" fill="#FF1700"/>
<path d="M28.2582 83.9651C28.8636 84.6587 29.4958 85.0687 29.4634 85.4328C29.4296 85.8131 28.7695 86.4142 28.3595 86.4293C27.9583 86.4444 27.2541 85.8797 27.1888 85.5014C27.1267 85.1408 27.7181 84.6925 28.2582 83.9651Z" fill="#FF1700"/>
<path d="M73.3844 99.6106C73.1563 99.8277 73.0708 100.287 72.894 100.63C72.5416 100.451 71.9175 100.305 71.8824 100.086C71.7165 99.0468 71.7876 96.0269 71.7248 94.9744C71.7248 94.9744 77.3885 95.803 73.3844 99.6106ZM93.1643 48.0161C89.9378 42.3462 85.278 37.42 79.6078 33.605C79.4288 33.4491 79.2488 33.2944 79.0701 33.1363C81.9337 29.8964 85.7407 27.8114 90.651 26.7043C86.3595 24.2367 82.0859 24.1662 77.4587 25.2942C78.8722 21.8433 79.1382 18.6273 77.5019 15.2491C76.4851 15.7026 71.4399 16.8935 68.8023 21.4287C67.1076 17.9627 64.1229 15.3341 59.6514 14.0662C60.2676 16.0906 61.0825 17.9751 61.3669 19.9202C61.6565 21.9039 61.9232 24.2628 61.4318 26.1333C58.1577 25.4912 54.7563 25.151 51.2665 25.151C25.4267 25.151 4.4046 43.711 4.4046 66.5245C4.4046 89.338 25.4267 107.898 51.2665 107.898C68.5574 107.898 83.6896 99.5859 91.8109 87.2511C91.8109 87.2511 82.8644 91.338 82.6643 91.1523C80.9904 89.6006 79.1808 90.213 77.3988 90.8779C76.6252 91.1665 75.9738 91.7232 75.1916 91.9765C74.3873 92.2369 73.4761 92.4339 72.6388 92.3724C71.4921 92.2882 70.3052 92.0651 69.2557 91.6593C68.1415 91.228 67.589 91.6278 67.01 92.3274C65.1997 94.5151 65.453 97.795 67.68 99.9506C68.3324 100.582 70.11 101.926 71.2807 102.277C70.11 102.185 68.4641 102.048 67.8945 102.028C66.2778 101.973 64.603 101.685 63.0594 101.961C61.4393 102.251 59.9174 103.039 58.4011 103.698C54.884 105.224 51.4676 105.165 48.1068 103.35C47.6385 103.097 47.1381 102.89 46.6138 102.644C45.9621 105.451 45.5842 105.687 43.4209 104.757C44.9163 101.398 44.6484 99.359 42.5053 97.7986C40.6158 98.9993 39.6555 99.0594 38.8341 97.9377C37.8427 96.5845 38.2358 95.1939 39.0855 93.9611C39.8929 92.7895 39.938 87.5965 39.3164 88.7887C36.6527 93.8983 32.2651 95.2041 26.3792 95.9065C22.1169 96.4149 19.4367 94.3847 17.2168 91.3879C18.2881 90.9259 19.3102 90.5536 20.255 90.0649C24.0213 88.117 26.5172 85.4728 26.1887 81.3445C26.0131 79.1368 24.5034 77.5514 22.2316 77.178C19.8864 76.7927 17.7305 77.6886 16.759 79.4518C15.6604 81.446 16.0719 83.4163 18.1271 84.8448C19.1368 85.5463 19.2161 86.249 18.4997 86.9446C17.7461 87.6767 16.7684 88.2419 15.8307 88.8046C15.6001 88.9432 14.9432 88.907 14.8257 88.7503C14.1659 87.8704 13.0769 87.2069 13.6512 85.7873C14.0469 84.8105 13.8909 83.5958 13.7156 82.521C13.5524 81.5184 12.97 80.5751 12.6925 79.5796C11.9982 77.0902 12.9744 75.1843 15.5395 73.9449C16.4016 73.5281 17.3094 73.1846 18.6222 72.6268C17.2091 71.4014 16.1076 70.2059 14.7436 69.3293C13.3019 68.4024 11.5765 67.8284 10.035 67.0116C7.64604 65.7461 6.62015 63.7187 7.37193 61.9646C10.6152 62.7523 13.0937 62.2716 14.4204 60.5979C15.3363 59.4422 15.322 58.0115 14.3225 56.8602C14.1789 57.2471 14.0879 57.6005 13.9204 57.9229C13.3914 58.9414 12.5004 59.4194 11.2278 59.1796C9.99895 58.9483 9.46255 58.1652 9.46752 57.1338C9.47653 55.2546 10.6541 53.9655 12.4296 53.1072C14.064 52.3173 15.7254 52.4054 17.1833 53.4689C19.3304 55.035 21.4204 56.6621 23.567 58.2876C23.2599 58.509 22.9035 58.7828 22.5277 59.035C19.3426 61.173 18.2446 64.3624 19.8622 67.6278C20.6112 69.1405 21.6927 70.5857 22.9116 71.844C25.6132 74.6331 28.2955 77.3722 27.9959 81.77C29.7646 79.4938 30.0657 77.4082 29.194 75.2952C28.5103 73.6387 27.4334 72.1118 26.6083 70.497C25.9824 69.2722 25.2042 68.0361 24.9776 66.7391C24.5385 64.2288 26.2882 62.1961 29.6387 60.7128C33.2966 59.0937 35.2663 56.8915 35.817 54.8806C36.7972 51.3024 34.7044 46.7108 31.2771 45.6819C28.0711 44.7194 24.9096 45.9876 24.719 48.4773C24.71 48.5939 24.7197 48.7199 24.742 48.8496C24.7386 48.8971 24.734 48.9443 24.734 48.9926C24.734 50.2142 25.8553 51.2044 27.2392 51.2044C28.6228 51.2044 29.7444 50.2142 29.7444 48.9926C29.7444 48.3802 29.4619 47.8257 29.0063 47.4253C28.9929 47.3993 28.9792 47.3735 28.9674 47.3469C30.8908 47.4344 32.0702 48.3113 32.0305 49.9195C31.9997 51.1479 31.6768 52.4284 31.1718 53.5786C30.0107 56.2248 26.837 57.1022 24.3331 55.3366C22.7652 54.2311 21.3036 52.806 20.365 51.2552C18.9706 48.9509 17.27 47.2774 14.2557 46.8464C13.8688 46.791 13.512 46.5704 13.1515 46.4304C13.4784 45.289 14.1908 45.0036 15.4404 44.856C16.6904 44.7081 18.2983 44.1577 18.9255 43.3093C19.8852 42.0107 20.2932 40.332 20.6429 38.7639C20.9406 37.4304 21.1774 37.0372 22.6604 37.4022C29.2027 39.0114 36.0756 35.4406 37.8489 29.7409C37.9928 29.2791 38.651 28.9421 39.349 28.2847C39.598 29.4733 39.7207 30.159 39.887 30.8365C41.1568 36.0042 48.2376 38.9642 53.2275 36.4182C55.1466 35.4392 56.0221 33.3671 55.2759 31.5696C54.5275 29.7661 52.4437 28.7882 50.1172 29.1485C48.1149 29.4585 46.5569 31.0914 46.6974 32.9843C46.7667 33.9142 47.2472 34.8202 47.53 35.701C44.4651 34.8726 41.9953 31.9968 42.0506 29.1446C42.059 28.7265 42.4111 28.0087 42.7045 27.9659C43.2375 27.8882 43.9902 28.0737 44.3936 28.3986C45.348 29.1685 45.9941 29.1229 46.629 28.1522C46.8677 27.7878 47.3786 27.3293 47.7799 27.3183C50.2139 27.2525 52.6532 27.2744 55.0882 27.3403C55.5534 27.3529 56.1405 27.5891 56.4457 27.8967C59.8624 31.3402 64.3193 32.5107 69.2134 31.9329C72.6466 31.5274 74.8572 33.0603 77.1125 34.7143C79.0319 36.1224 80.4811 38.4637 77.3832 39.6987C77.3276 39.2229 77.304 38.7658 77.2173 38.3186C76.9018 36.6918 74.8587 35.4979 73.0649 35.8763C71.2929 36.25 70.1744 37.482 70.2353 38.9933C70.303 40.6733 71.6369 42.3847 73.6737 42.8072C77.1209 43.5225 80.5995 41.8515 81.8818 38.0393C83.38 39.5473 86.9776 42.3361 86.4098 48.0161C86.4098 48.0161 93.2175 48.0841 93.1643 48.0161Z" fill="#FF1700"/>
<path d="M35.8566 60.4624C35.8566 60.4624 34.6999 61.0309 34.5616 61.1278C33.6411 61.771 29.8126 65.0518 31.8112 69.4297C33.0043 72.0424 36.8925 73.396 36.8925 73.396C32.3535 66.4452 37.6088 67.6206 35.8566 60.4624Z" fill="#FF1700"/>
</svg>
